{"title":"The Man from U.N.C.L.E.","uid":12640128,"size":4231610498,"categoryP":"video","categoryS":"movies","magnet":"?xt=urn:btih:ee6e399698bde810d69a23b35d5a5e4d30035003&amp;dn=The+Man+from+U.N.C.L.E.&amp;tr=udp%3A%2F%2Ftracker.leechers-paradise.org%3A6969&amp;tr=udp%3A%2F%2Fzer0day.ch%3A1337&amp;tr=udp%3A%2F%2Fopen.demonii.com%3A1337&amp;tr=udp%3A%2F%2Ftracker.coppersurfer.tk%3A6969&amp;tr=udp%3A%2F%2Fexodus.desync.com%3A6969","seeders":1,"leechers":0,"uploader":"anfusebroo","files":5,"time":1445979106,"description":"Mediainfo :\r\n\r\nVideo\r\nID : 1\r\nFormat : AVC\r\nFormat/Info : Advanced Video Codec\r\nFormat profile :   \r\nFormat settings, CABAC : Yes\r\nFormat settings, ReFrames : 5 frames\r\nCodec ID : V_MPEG4/ISO/AVC\r\nDuration : 1h 56mn\r\nBit rate : 4 364 Kbps\r\nWidth : 1 912 pixels\r\nHeight : 792 pixels\r\nDisplay aspect ratio : 2.40:1\r\nFrame rate mode : Constant\r\nFrame rate : 23.976 fps\r\nColor space : YUV\r\nChroma subsampling : 4:2:0\r\nBit depth : 8 bits\r\nScan type : Progressive\r\nBits/(Pixel*Frame) : 0.120\r\nStream size : 3.55 GiB (90%)\r\nTitle : The.Man.from.U.N.C.L.E.2015.1080p.WEB-DL.DD5.1.H264-RARBG\r\nLanguage : English\r\nDefault : Yes\r\nForced : No\r\nColor range : Limited\r\nColor primaries : BT.709\r\nTransfer characteristics : BT.709\r\nMatrix coefficients : BT.709\r\n\r\nAudio\r\nID : 2\r\nFormat : AC-3\r\nFormat/Info : Audio Coding 3\r\nMode extension : CM (complete main)\r\nFormat settings, Endianness : Big\r\nCodec ID : A_AC3\r\nDuration : 1h 56mn\r\nBit rate mode : Constant\r\nBit rate : 384 Kbps\r\nChannel(s) : 6 channels\r\nChannel positions : Front: L C R, Side: L R, LFE\r\nSampling rate : 48.0 KHz\r\nCompression mode : Lossy\r\nStream size : 320 MiB (8%)\r\nTitle : The.Man.from.U.N.C.L.E.2015.1080p.WEB-DL.DD5.1.H264-RARBG\r\nLanguage : English\r\nDefault : Yes\r\nForced : No\r\n\r\nText\r\nID : 3\r\nFormat : UTF-8\r\nCodec ID : S_TEXT/UTF8\r\nCodec ID/Info : UTF-8 Plain Text\r\nLanguage : English\r\nDefault : Yes\r\nForced : No\r\n\r\nMenu\r\n00:00:00.000 : en:1\r\n00:15:18.000 : en:2\r\n00:23:10.000 : en:3\r\n00:32:08.000 : en:4\r\n00:40:34.000 : en:5\r\n00:49:06.000 : en:6\r\n00:59:22.000 : en:7\r\n01:08:51.000 : en:8\r\n01:20:27.000 : en:9\r\n01:29:46.000 : en:10\r\n01:43:20.000 : en:11\r\n01:49:22.000 : en:12","torrent":{"xt":"urn:btih:ee6e399698bde810d69a23b35d5a5e4d30035003","amp;dn":"The+Man+from+U.N.C.L.E.","amp;tr":["udp%3A%2F%2Ftracker.leechers-paradise.org%3A6969","udp%3A%2F%2Fzer0day.ch%3A1337","udp%3A%2F%2Fopen.demonii.com%3A1337","udp%3A%2F%2Ftracker.coppersurfer.tk%3A6969","udp%3A%2F%2Fexodus.desync.com%3A6969"],"infoHash":"ee6e399698bde810d69a23b35d5a5e4d30035003","infoHashBuffer":{"type":"Buffer","data":[238,110,57,150,152,189,232,16,214,154,35,179,93,90,94,77,48,3,80,3]},"announce":[],"urlList":[]}}